<svg width="18" height="18" viewBox="0 0 18 18" fill="none" xmlns="http://www.w3.org/2000/svg">
<path fill-rule="evenodd" clip-rule="evenodd" d="M7.50851 0.844506C8.30412 0.385165 9.28434 0.385165 10.0799 0.844506L15.3027 3.85989C16.0983 4.31923 16.5885 5.16813 16.5885 6.08681V12.1176C16.5885 13.0363 16.0983 13.8852 15.3027 14.3445L10.0799 17.3599C9.28434 17.8192 8.30412 17.8192 7.50851 17.3599L2.28571 14.3445C1.49011 13.8852 1 13.0363 1 12.1176V6.08681C1 5.16813 1.49011 4.31923 2.28571 3.85989L7.50851 0.844506Z" fill="white"/>
<path fill-rule="evenodd" clip-rule="evenodd" d="M14.917 4.52797L9.69423 1.51258C9.13731 1.19104 8.45115 1.19104 7.89423 1.51258L2.67143 4.52797C2.11451 4.84951 1.77143 5.44374 1.77143 6.08681V12.1176C1.77143 12.7607 2.11451 13.3549 2.67143 13.6764L7.89423 16.6918C8.45115 17.0134 9.13731 17.0134 9.69423 16.6918L14.917 13.6764C15.474 13.3549 15.817 12.7607 15.817 12.1176V6.08681C15.817 5.44374 15.474 4.84951 14.917 4.52797ZM10.0799 0.844506C9.28434 0.385165 8.30412 0.385165 7.50851 0.844506L2.28571 3.85989C1.49011 4.31923 1 5.16813 1 6.08681V12.1176C1 13.0363 1.49011 13.8852 2.28571 14.3445L7.50851 17.3599C8.30412 17.8192 9.28434 17.8192 10.0799 17.3599L15.3027 14.3445C16.0983 13.8852 16.5885 13.0363 16.5885 12.1176V6.08681C16.5885 5.16813 16.0983 4.31923 15.3027 3.85989L10.0799 0.844506Z" fill="#38A0DA"/>
<path fill-rule="evenodd" clip-rule="evenodd" d="M5.59924 11.3376L8.93059 14.6688L12.2831 11.3163L11.172 10.2053L8.94376 12.4337L7.83563 11.3257L10.0639 9.09727L8.95186 7.98499L5.59924 11.3376Z" fill="#1A191B"/>
<path fill-rule="evenodd" clip-rule="evenodd" d="M8.96929 3.5L4.5 7.96929L4.51508 10.1831L8.94915 5.7491L13.4008 10.2007L13.4086 7.93936L8.96929 3.5Z" fill="#38A0DA"/>
</svg>
